# xmcd
#
# Track frame offsets:
#	150
#	14325
#	30215
#	44284
#	60227
#	77051
#	91142
#	108935
#	128392
#	148452
#	163137
#	184781
#	198842
#	214993
#
# Disc length: 3136 seconds
#
# Revision: 0
# Processed by: cddbd v1.5.1PL0 Copyright (c) Steve Scherf et al.
# Submitted via: EasyCDDAExtractor 7.1.3.1
#
DISCID=b10c3e0e
DTITLE=Don Fardon - Indian reservation
DYEAR=1997
DGENRE=Country
TTITLE0=Indian Reservation
TTITLE1=A Good Womans Love
TTITLE2=Cocktail Bar Blues
TTITLE3=Brown Eyed And Blue
TTITLE4=Fear Of Losing You
TTITLE5=Champion Of The Rodeo
TTITLE6=Gone Country
TTITLE7=Who's That Man
TTITLE8=Caught In The Crossfire
TTITLE9=Belfast Boy
TTITLE10=Jodie's Song
TTITLE11=Take A Heart
TTITLE12=Do You Remember
TTITLE13=Indian Reservation (Dance Mix)
EXTD=
EXTT0=
EXTT1=
EXTT2=
EXTT3=
EXTT4=
EXTT5=
EXTT6=
EXTT7=
EXTT8=
EXTT9=
EXTT10=
EXTT11=
EXTT12=
EXTT13=
PLAYORDER=
